<?xml version="1.0" encoding="UTF-8"?>
<svg version="1.1" xmlns="http://www.w3.org/2000/svg" width="1563" height="1563">
<path d="M0 0 C24.91984293 -0.63692889 50.35610132 6.03661649 68.79296875 23.46875 C75.3259026 30.40086461 79.98300921 38.05413226 82.79296875 47.15625 C83.45143799 47.01622559 84.10990723 46.87620117 84.78833008 46.73193359 C109.26346689 41.85973792 133.41778493 45.48769651 154.41796875 59.34375 C156.22213228 60.59677864 158.01542229 61.86574026 159.79296875 63.15625 C160.94925781 63.95482422 160.94925781 63.95482422 162.12890625 64.76953125 C162.67804688 65.22714844 163.2271875 65.68476562 163.79296875 66.15625 C163.79296875 66.81625 163.79296875 67.47625 163.79296875 68.15625 C164.375625 68.40890625 164.95828125 68.6615625 165.55859375 68.921875 C175.9961838 74.68809607 182.73579743 89.13032265 186.23046875 100.09375 C191.22154714 118.29909321 191.22154714 118.29909321 187.79296875 125.15625 C189.13875 125.10404297 189.13875 125.10404297 190.51171875 125.05078125 C216.98437131 124.47647784 241.8278711 133.7985345 261.79296875 151.15625 C262.40140625 151.63320313 263.00984375 152.11015625 263.63671875 152.6015625 C277.20062112 163.39103029 287.09945158 180.02954647 289.79296875 197.15625 C290.3001176 206.23616502 290.3441242 214.63347693 286.79296875 223.15625 C286.53773438 223.8265625 286.2825 224.496875 286.01953125 225.1875 C283.11611059 231.89999547 277.90786335 237.0413554 272.79296875 242.15625 C272.37667181 244.42342113 271.98554121 246.69522565 271.60546875 248.96875 C269.57699975 259.8335101 265.09907262 269.62732544 256.79296875 277.15625 C256.22384766 277.49736816 255.65472656 277.83848633 255.06835938 278.18994141 C251.31455811 280.43761871 251.31455811 280.43761871 249.02856445 284.03295898 C248.60616473 286.24404221 248.35956189 288.41352485 248.16796875 290.65625 C246.02690097 307.47382761 238.99445572 322.18104929 225.79296875 333.15625 C211.57748961 343.80464794 196.77922187 349.569147 178.91796875 349.46875 C177.96067871 349.46746094 177.00338867 349.46617187 176.01708984 349.46484375 C168.89359039 349.36823755 162.54657937 348.54993478 155.79296875 346.15625 C155.53 346.88457031 155.26703125 347.61289062 154.99609375 348.36328125 C149.23856364 361.72897615 134.87066108 370.51342879 121.97265625 375.97265625 C105.02311354 382.28188407 85.79782225 382.4356703 68.79296875 376.15625 C67.44504155 375.51960686 66.10385139 374.86604499 64.79296875 374.15625 C64.41785156 374.68734375 64.04273438 375.2184375 63.65625 375.765625 C60.70167002 379.84398728 57.95524876 383.21817 53.79296875 386.15625 C54.12296875 386.775 54.45296875 387.39375 54.79296875 388.03125 C56.55512148 393.53797729 56.52635394 398.91295413 54.73046875 404.40625 C52.22152078 407.96733743 49.22376829 410.50560488 45.79296875 413.15625 C46.12296875 413.775 46.45296875 414.39375 46.79296875 415.03125 C48.44166035 420.18341123 48.95941453 425.39581655 46.8125 430.4765625 C43.94167592 435.26421374 41.1790033 438.36090515 35.79296875 440.15625 C28.26128852 440.80790952 21.86474979 439.73338496 14.79296875 437.15625 C14.40044922 438.06697266 14.40044922 438.06697266 14 438.99609375 C11.44981722 443.5600131 6.75638712 445.47095716 1.97265625 447.140625 C-23.67190335 453.9534654 -52.62331513 445.80629811 -75.20703125 433.15625 C-78.42454819 431.02442525 -81.31893584 428.70866766 -84.20703125 426.15625 C-85.78484375 424.980625 -85.78484375 424.980625 -87.39453125 423.78125 C-94.07701283 417.54426719 -97.11364082 411.1861468 -98.20703125 402.15625 C-99.16802734 402.00929688 -99.16802734 402.00929688 -100.1484375 401.859375 C-106.38016261 400.7820574 -112.2272773 399.72650397 -116.48828125 394.62109375 C-119.61694083 389.71580248 -120.80043666 384.5626253 -119.80078125 378.82421875 C-118.23021338 373.18700194 -116.0798213 370.3702179 -111.20703125 367.15625 C-110.54703125 367.15625 -109.88703125 367.15625 -109.20703125 367.15625 C-109.51640625 366.49625 -109.82578125 365.83625 -110.14453125 365.15625 C-112.39097223 358.81335784 -112.82354183 354.13437443 -110.16015625 347.984375 C-108.3476389 344.5079073 -106.73605519 341.70839753 -102.95703125 340.34375 C-102.09078125 340.2509375 -102.09078125 340.2509375 -101.20703125 340.15625 C-101.53703125 339.393125 -101.86703125 338.63 -102.20703125 337.84375 C-103.54648793 332.90450349 -103.36990783 328.24161891 -103.20703125 323.15625 C-103.86703125 323.48625 -104.52703125 323.81625 -105.20703125 324.15625 C-124.41918743 325.65030244 -141.69600701 322.91305724 -156.98046875 310.32421875 C-164.87352545 302.63887407 -172.40981544 292.7243719 -174.7109375 281.75390625 C-175.61490876 277.58994416 -176.43933347 275.71843096 -179.96484375 273.13671875 C-181.66662246 272.13578858 -183.36904594 271.13545557 -185.09033203 270.16845703 C-196.46827003 263.74129728 -203.75752956 253.4650121 -208.51953125 241.46875 C-211.24531671 235.14456789 -215.76202216 232.11158679 -221.20703125 228.15625 C-230.15133765 220.92081515 -236.53104516 209.28039054 -239.20703125 198.15625 C-239.3875 197.45628906 -239.56796875 196.75632812 -239.75390625 196.03515625 C-242.43052107 179.02942246 -239.86322966 162.56561037 -230.20703125 148.15625 C-227.40109753 144.6110907 -224.39711565 141.35731576 -221.20703125 138.15625 C-220.28470703 137.19912109 -220.28470703 137.19912109 -219.34375 136.22265625 C-208.77847675 126.06460981 -192.30583386 119.96215886 -177.76953125 119.90625 C-176.24767999 119.96827596 -174.72589785 120.04257183 -173.20703125 120.15625 C-173.70203125 118.42375 -173.70203125 118.42375 -174.20703125 116.65625 C-177.86475921 99.94648557 -174.25257059 84.45631316 -165.20703125 70.15625 C-153.11076943 52.62711818 -133.79039391 42.29196793 -113.1875 38.06640625 C-106.68602953 36.92748255 -100.29267417 36.86180247 -93.70703125 36.90625 C-92.56105469 36.89851562 -91.41507813 36.89078125 -90.234375 36.8828125 C-83.01492421 36.89923901 -76.25598692 37.59179523 -69.20703125 39.15625 C-68.80613281 38.39441406 -68.40523437 37.63257813 -67.9921875 36.84765625 C-58.83983283 20.22399164 -44.43474058 10.0008309 -26.27050781 4.578125 C-17.5479235 2.12502766 -9.05149273 0.44099843 0 0 Z " fill="#8E2525" transform="translate(777.20703125,483.84375)"/>
<path d="M0 0 C12.39614634 9.55575469 19.63808753 20.49046115 22.01171875 36.046875 C23.06868016 46.20401631 21.28330503 55.87323518 15.26171875 64.296875 C6.71723476 74.69411699 6.71723476 74.69411699 2.01171875 77.046875 C2.01171875 78.696875 2.01171875 80.346875 2.01171875 82.046875 C6.88143049 81.62947114 8.73356759 79.50222352 12.01171875 76.046875 C12.67171875 76.046875 13.33171875 76.046875 14.01171875 76.046875 C14.28242187 75.46164062 14.553125 74.87640625 14.83203125 74.2734375 C16.00054512 72.0679643 17.3062101 70.34632854 18.88671875 68.421875 C23.53542023 62.36378726 26.94700939 54.49316355 27.328125 46.81640625 C27.37001953 46.01396484 27.41191406 45.21152344 27.45507812 44.38476562 C27.49439453 43.55138672 27.53371094 42.71800781 27.57421875 41.859375 C27.63899414 40.5919043 27.63899414 40.5919043 27.70507812 39.29882812 C27.81103393 37.21503067 27.91186895 35.13097397 28.01171875 33.046875 C44.58525602 27.2581967 61.43053382 29.75342268 77.203125 36.84375 C85.17023513 40.72020168 91.84345554 45.67118347 98.01171875 52.046875 C99.08873047 53.14515625 99.08873047 53.14515625 100.1875 54.265625 C111.21832956 66.0650811 116.76920232 79.16232777 116.90844727 95.31787109 C116.72295979 99.35476048 116.48189493 101.44515615 113.9453125 104.69140625 C111.32421875 106.609375 111.32421875 106.609375 108.5625 108.296875 C102.60507598 112.38405105 100.62248828 120.31414094 99.01171875 127.046875 C98.74784841 129.88722153 98.73111954 132.69604871 98.76171875 135.546875 C98.75398438 136.26746094 98.74625 136.98804688 98.73828125 137.73046875 C98.75562397 142.52573124 99.50231189 146.49469559 101.01171875 151.046875 C102.33171875 151.376875 103.65171875 151.706875 105.01171875 152.046875 C104.99077148 151.27609619 104.96982422 150.50531738 104.94824219 149.71118164 C104.8644639 146.17738182 104.81286277 142.64379178 104.76171875 139.109375 C104.72820312 137.89701172 104.6946875 136.68464844 104.66015625 135.43554688 C104.54672147 124.97118805 106.65240388 117.59017274 114.01171875 110.046875 C121.26986482 104.89023594 136.32971497 107.6638335 144.51171875 108.984375 C158.17157372 112.11845428 171.30468988 119.09253643 182.01171875 128.046875 C182.85863281 128.73265625 183.70554687 129.4184375 184.578125 130.125 C196.16421253 139.95990789 207.25582311 154.44206054 209.01171875 170.046875 C209.77009288 182.95572168 208.19022631 193.85740387 199.94921875 204.109375 C191.79222163 212.94467252 181.67567566 217.62255725 169.7734375 218.359375 C161.14912863 218.68274065 153.85703808 217.98682251 145.7109375 214.82421875 C142.7058788 213.95879664 140.98269219 214.18642914 138.01171875 215.046875 C138.01171875 216.036875 138.01171875 217.026875 138.01171875 218.046875 C140.23935863 218.86377677 142.46866735 219.67549372 144.69921875 220.484375 C145.63797852 220.82952148 145.63797852 220.82952148 146.59570312 221.18164062 C157.14416336 224.99234092 168.03196876 225.16135281 178.92578125 222.484375 C181.01171875 222.046875 181.01171875 222.046875 185.01171875 222.046875 C180.98530398 234.12611932 156.20892795 246.40466626 145.19921875 252.00195312 C131.27704395 258.65227769 117.62829241 262.11108338 102.19921875 262.296875 C101.50554199 262.3064624 100.81186523 262.3160498 100.09716797 262.32592773 C95.12363212 262.29323057 90.79829974 261.3976235 86.01171875 260.046875 C87.37878838 257.31273574 88.94268372 256.99933203 91.69921875 255.734375 C100.98705824 251.16961298 107.33623638 244.52605519 111.30859375 234.90625 C114.13337403 226.59566453 115.19321062 219.28269571 115.19921875 210.546875 C115.21146484 209.60972656 115.22371094 208.67257812 115.23632812 207.70703125 C115.25383538 201.15510214 115.25383538 201.15510214 113.01171875 195.046875 C111.69171875 195.046875 110.37171875 195.046875 109.01171875 195.046875 C109.1715625 196.00980469 109.33140625 196.97273437 109.49609375 197.96484375 C111.01101875 208.65258587 111.55523779 221.08044613 107.01171875 231.046875 C106.67140625 231.81 106.33109375 232.573125 105.98046875 233.359375 C100.7445469 243.8312187 92.6945459 249.85373386 81.85546875 253.83984375 C79.73559735 254.58393662 79.73559735 254.58393662 77.01171875 256.046875 C76.88796875 256.83835937 76.76421875 257.62984375 76.63671875 258.4453125 C76.01171875 261.046875 76.01171875 261.046875 73.859375 262.7421875 C70.93465805 264.24351485 68.00711648 265.69135041 65.01171875 267.046875 C64.25761719 267.39234375 63.50351562 267.7378125 62.7265625 268.09375 C47.47273583 273.79712082 29.46520371 269.8303378 15.13671875 263.54296875 C0.37505568 256.47582255 -12.25824397 247.22191307 -23.70703125 235.53125 C-25.94698256 233.75320828 -25.94698256 233.75320828 -28.9296875 234.21484375 C-31.77026824 234.98756878 -34.60123108 235.78003899 -37.42578125 236.609375 C-47.90993423 239.22066961 -58.26115136 239.52914987 -68.14453125 234.7734375 C-84.09861279 225.08703085 -90.61844327 210.03102163 -95.98828125 193.046875 C-99.47097637 194.38433586 -102.83773515 195.89924491 -106.20263672 197.5090332 C-119.10259733 203.6722012 -131.39753554 208.44701096 -145.86328125 208.421875 C-146.735896 208.42171387 -147.60851074 208.42155273 -148.50756836 208.42138672 C-156.62289496 208.27799306 -163.19635845 206.57482353 -169.98828125 202.046875 C-169.41671393 198.68258636 -168.49097053 197.31228242 -165.92578125 195.109375 C-155.13305011 184.73858191 -149.12333044 170.15869057 -148.80078125 155.359375 C-148.83792628 149.42359941 -149.71274511 143.83234251 -150.98828125 138.046875 C-149.97378906 137.76199219 -148.95929687 137.47710938 -147.9140625 137.18359375 C-134.31913386 133.28517365 -122.42504715 129.13291322 -114.4609375 116.80078125 C-110.89890735 110.13969038 -108.70782388 103.63044219 -108.98828125 96.046875 C-110.63828125 96.376875 -112.28828125 96.706875 -113.98828125 97.046875 C-114.21515625 98.325625 -114.44203125 99.604375 -114.67578125 100.921875 C-116.79486102 110.23121165 -121.15686908 118.37668976 -128.98828125 124.046875 C-146.96011611 133.28435787 -146.96011611 133.28435787 -155.98828125 131.046875 C-158.53254466 128.68549734 -160.18613255 125.98939976 -161.98828125 123.046875 C-162.97828125 122.056875 -162.97828125 122.056875 -163.98828125 121.046875 C-165.30828125 121.046875 -166.62828125 121.046875 -167.98828125 121.046875 C-167.4559993 125.10641203 -166.33796657 127.21854508 -163.67578125 130.296875 C-155.27719506 140.64420912 -153.83536846 152.07499589 -154.98828125 165.046875 C-157.60707922 177.73069165 -166.90685665 187.4078062 -174.98828125 197.046875 C-183.42990955 193.3876284 -187.63012826 183.07536415 -190.98828125 175.046875 C-197.60526434 156.58467525 -201.94925709 137.99911131 -193.76953125 119.25390625 C-189.53506477 110.72616126 -183.47292183 103.56448729 -174.98828125 99.046875 C-174.32828125 99.046875 -173.66828125 99.046875 -172.98828125 99.046875 C-173.31828125 97.78875 -173.64828125 96.530625 -173.98828125 95.234375 C-176.23098102 83.84211022 -177.06996564 70.30854062 -170.98828125 60.046875 C-170.54097656 59.27214844 -170.09367188 58.49742187 -169.6328125 57.69921875 C-159.12472325 40.82429795 -139.7579621 31.02046553 -120.98828125 26.046875 C-118.36525015 25.64638469 -115.79241084 25.37711589 -113.14453125 25.22265625 C-112.43296875 25.16464844 -111.72140625 25.10664062 -110.98828125 25.046875 C-110.30378906 25.01207031 -109.61929688 24.97726562 -108.9140625 24.94140625 C-105.77140804 23.48163369 -104.98664086 20.44660932 -103.67578125 17.421875 C-97.29226411 3.8991437 -85.24636717 -3.93009692 -71.42578125 -8.953125 C-48.5392494 -16.57314948 -20.25096905 -13.23592748 0 0 Z " fill="#FECBD1" transform="translate(832.98828125,547.953125)"/>
<path d="M0 0 C-0.33 0.66 -0.66 1.32 -1 2 C-3.08096262 2.67980091 -5.19212936 3.26792394 -7.3125 3.8125 C-24.96411021 8.67697617 -43.4534689 17.01590703 -53.5 33.125 C-57.69103511 40.51042164 -59.47562936 46.89936978 -59.25 55.375 C-59.23904297 56.20555908 -59.22808594 57.03611816 -59.21679688 57.8918457 C-59.11333512 63.63790939 -58.74769035 69.29886111 -58 75 C-58.556875 75.32871094 -59.11375 75.65742187 -59.6875 75.99609375 C-70.39094082 82.66766413 -77.84568597 91.75856012 -81.3125 104 C-84.06298091 119.57698099 -81.08049485 133.27629288 -76 148 C-75.59394531 149.19109375 -75.18789063 150.3821875 -74.76953125 151.609375 C-71.74160559 159.58739074 -67.23320058 168.17786628 -60 173 C-59.74734375 172.42378906 -59.4946875 171.84757813 -59.234375 171.25390625 C-57.85402298 168.73345336 -56.24305321 167.00394083 -54.25 164.9375 C-49.82911298 160.05927984 -46.84777858 154.90847518 -44 149 C-43.65839844 148.36835937 -43.31679688 147.73671875 -42.96484375 147.0859375 C-38.96629333 138.64248685 -39.83056531 125.98817688 -42.87890625 117.3828125 C-45.38659495 112.05288181 -48.43400675 106.43336888 -52.73828125 102.3515625 C-53.36283203 101.68253906 -53.36283203 101.68253906 -54 101 C-53.6875 98.3125 -53.6875 98.3125 -53 96 C-48.68819268 96.48405436 -46.9410446 97.62004866 -44.1875 100.9375 C-43.58292969 101.64777344 -42.97835937 102.35804688 -42.35546875 103.08984375 C-41 105 -41 105 -41 107 C-28.7273298 105.81758327 -16.12731614 102.80624254 -7.6171875 93.2734375 C-3.15990649 87.00740477 -0.80627099 80.57894728 0 73 C0.66 72.34 1.32 71.68 2 71 C4.625 71.375 4.625 71.375 7 72 C6.51722946 83.3451078 3.13862294 92.86137706 -5 101 C-14.00846301 108.33974628 -23.57379013 112.26415986 -35 114 C-34.7834375 114.98226562 -34.7834375 114.98226562 -34.5625 115.984375 C-31.21223011 132.45653529 -33.39098893 146.4710396 -42 161 C-44.96064189 165.31351798 -48.14721982 169.26673892 -51.9375 172.875 C-54.34823769 174.86523377 -54.34823769 174.86523377 -54 178 C-46.28783799 182.13823327 -39.87659893 183.3695758 -31.25 183.3125 C-30.35893555 183.30686035 -29.46787109 183.3012207 -28.54980469 183.29541016 C-21.92207623 183.17321217 -16.22636702 182.34807909 -10 180 C-8.72451411 179.55699033 -7.44842231 179.11572304 -6.171875 178.67578125 C1.25473714 176.055913 8.11411279 173.12782389 14.86328125 169.00390625 C17 168 17 168 20 169 C20.99376738 171.56271528 21.8301223 174.06364008 22.625 176.6875 C27.06855729 190.17468524 34.15880601 202.22025115 46.70703125 209.58984375 C58.45977142 215.26954817 70.01860948 213.91663518 81.9765625 209.77734375 C85.27448622 208.92942796 86.8251905 208.81652158 90 210 C92.40234375 211.93359375 92.40234375 211.93359375 94.9375 214.4375 C107.38763719 226.13662355 122.67915195 236.6289101 139 242 C139.86238281 242.29777344 140.72476562 242.59554687 141.61328125 242.90234375 C154.96071777 246.90842083 170.20160019 246.65421842 183 241 C185.15803598 239.78559192 187.02101657 238.49760908 189 237 C189.66 237 190.32 237 191 237 C190.896875 236.236875 190.79375 235.47375 190.6875 234.6875 C191 232 191 232 192.875 230.4375 C196 229 196 229 198.20703125 228.24609375 C208.82961938 224.51564154 215.65624916 217.77861716 220.84375 207.87109375 C224.15156946 199.65742042 224.25032742 192.27291959 224.125 183.5 C224.11146484 181.69402344 224.11146484 181.69402344 224.09765625 179.8515625 C224.07423775 176.9008321 224.04143993 173.95052311 224 171 C225.875 170.375 225.875 170.375 228 170 C232.20209272 174.20209272 231.23287692 180.40857898 231.25 186 C231.24397172 200.13632027 228.66253531 213.55870492 218.8046875 224.3359375 C213.8285685 228.92430697 208.36574439 232.67383672 202 235 C207.11842262 236.68386749 211.71968307 237.32441923 217.125 237.25 C218.24793457 237.23549805 218.24793457 237.23549805 219.39355469 237.22070312 C249.88686058 236.56941509 274.30468266 220.11435055 297.13671875 201.43359375 C299 200 299 200 300 200 C299.50177071 211.48418512 295.98657353 220.89133638 289 230 C288.44828125 230.73992187 287.8965625 231.47984375 287.328125 232.2421875 C279.68955307 241.67615027 268.52597874 248.39688748 257 252 C256.34644531 252.22300781 255.69289063 252.44601562 255.01953125 252.67578125 C243.82800449 255.85789814 230.72119041 254.76833612 219.69921875 251.65625 C216.89268266 250.97390837 214.85774865 250.51418273 212 251 C210.2047257 253.08092046 210.2047257 253.08092046 208.8125 255.875 C202.89427598 265.82837676 195.1899661 272.64308581 185 278 C184.35675781 278.37769531 183.71351563 278.75539063 183.05078125 279.14453125 C169.14134448 286.93031661 150.60265713 286.92363108 135.44140625 283.1640625 C120.59069882 278.14078121 108.89077975 268.92346765 100 256 C99.44054687 255.26652344 98.88109375 254.53304688 98.3046875 253.77734375 C96.46917287 249.87000571 96.84203089 246.55510016 97.0625 242.3125 C97.27560715 234.4528864 96.79717174 227.48936451 91.5 221.2265625 C91.005 220.82179688 90.51 220.41703125 90 220 C87.83700789 220.22757731 87.83700789 220.22757731 86 221 C86.4727691 223.95480687 87.24806335 225.3382682 89.0625 227.8125 C92.45260299 233.60078695 92.0231914 240.57663176 91 247 C89.27829379 250.30748824 87.08175479 251.97055172 84 254 C82.76636719 254.88558594 82.76636719 254.88558594 81.5078125 255.7890625 C65.79079909 266.49485424 49.21252229 269.87178686 30.5078125 267.5703125 C12.89291446 264.08178746 -1.87738105 253.69283106 -12 239 C-15.2257381 233.16792987 -17.46620863 227.12407413 -19.12890625 220.6796875 C-19.87477371 218.83439158 -19.87477371 218.83439158 -21.84765625 218.09375 C-24.72790944 217.96829433 -25.62986907 218.85160864 -27.875 220.625 C-40.51054401 229.36169279 -54.02494127 230.71318641 -69 229 C-82.05013408 226.50919137 -93.74569068 217.20600868 -101.65234375 206.83203125 C-105.0581331 201.65835125 -106.75921269 196.59177535 -108.375 190.6875 C-110.04527355 184.37024165 -110.04527355 184.37024165 -114.625 180 C-116.08267646 179.33189829 -117.5410815 178.66538513 -119 178 C-129.18882479 171.31358373 -135.45058648 164.76189835 -141 154 C-141.556875 153.01 -142.11375 152.02 -142.6875 151 C-147.99399899 138.87085946 -147.47698306 124.31170343 -143 112 C-137.13157932 98.34463649 -126.70593677 87.54308801 -113 81.6875 C-103.52910743 78.24621295 -94.00818655 77.54799869 -84 77 C-84.144375 75.741875 -84.28875 74.48375 -84.4375 73.1875 C-84.51871094 72.47980469 -84.59992187 71.77210938 -84.68359375 71.04296875 C-84.97170735 68.80603607 -84.97170735 68.80603607 -86 66 C-86.25583527 62.65049617 -86.2314076 59.29575209 -86.25 55.9375 C-86.270625 55.03322266 -86.29125 54.12894531 -86.3125 53.19726562 C-86.39461995 38.83653883 -80.0486712 27.58976504 -70.41796875 17.1953125 C-50.56982483 -0.82513481 -25.63420767 -4.42377698 0 0 Z " fill="#FE9191" transform="translate(718,572)"/>
<path d="M0 0 C9.9 0 19.8 0 30 0 C30 25.41 30 50.82 30 77 C48.48 77 66.96 77 86 77 C86 76.34 86 75.68 86 75 C68.18 75 50.36 75 32 75 C32 65.1 32 55.2 32 45 C59.72 45 87.44 45 116 45 C116 55.56 116 66.12 116 77 C116.66 77 117.32 77 118 77 C118 66.44 118 55.88 118 45 C142.42 45 166.84 45 192 45 C192 65.13 192 85.26 192 106 C108.18 106 24.36 106 -62 106 C-62 85.87 -62 65.74 -62 45 C-42.2 45 -22.4 45 -2 45 C-2 54.57 -2 64.14 -2 74 C-3 75 -3 75 -5.77563477 75.11352539 C-6.98533936 75.10828857 -8.19504395 75.10305176 -9.44140625 75.09765625 C-10.74658203 75.09443359 -12.05175781 75.09121094 -13.39648438 75.08789062 C-14.7851569 75.07953401 -16.17382877 75.07106905 -17.5625 75.0625 C-18.95507656 75.05748666 -20.34765481 75.05292347 -21.74023438 75.04882812 C-25.1601987 75.03699434 -28.58007844 75.0205088 -32 75 C-32 75.66 -32 76.32 -32 77 C-21.44 77 -10.88 77 0 77 C0 51.59 0 26.18 0 0 Z M148 75 C148 75.66 148 76.32 148 77 C152.62 77 157.24 77 162 77 C162 76.34 162 75.68 162 75 C157.38 75 152.76 75 148 75 Z " fill="#EFC5C0" transform="translate(580,969)"/>
<path d="M0 0 C1.48603477 1.1526461 2.94561437 2.34030972 4.375 3.5625 C5.14972656 4.20445312 5.92445313 4.84640625 6.72265625 5.5078125 C14.40310845 12.45740364 20.26428907 22.12449366 21.375 32.5625 C21.48962124 35.08150157 21.54977762 37.60342409 21.5625 40.125 C21.57667969 41.40503906 21.59085938 42.68507813 21.60546875 44.00390625 C21.3887158 47.35071876 20.82713997 49.57212481 19.375 52.5625 C18.75625 51.923125 18.1375 51.28375 17.5 50.625 C16.4600677 49.60239991 15.41808776 48.58188122 14.375 47.5625 C13.7046875 46.88445313 13.034375 46.20640625 12.34375 45.5078125 C-4.47458078 29.30615385 -26.73149491 23.93147572 -49.53515625 24.28515625 C-69.08353544 25.03372249 -88.54826585 32.59459813 -102 47 C-105.54113788 51.18233158 -108.21167484 55.65463201 -110.625 60.5625 C-114.47011926 60.62995823 -118.00677908 60.65633035 -121.81640625 60.078125 C-143.42440328 57.15273463 -163.46830712 61.35739603 -181.56640625 73.54296875 C-184.05011956 75.44272504 -186.34776881 77.42091616 -188.625 79.5625 C-189.31851563 80.20316406 -190.01203125 80.84382812 -190.7265625 81.50390625 C-200.02945381 90.96843081 -206.881835 105.23183109 -206.84960938 118.54101562 C-206.83736328 119.35248047 -206.82511719 120.16394531 -206.8125 121 C-206.81185547 121.80759766 -206.81121094 122.61519531 -206.81054688 123.44726562 C-206.77343898 128.56403237 -206.35183494 133.49791411 -205.625 138.5625 C-206.55699219 138.57667969 -207.48898437 138.59085938 -208.44921875 138.60546875 C-225.91159539 139.25876292 -240.22080315 146.12075537 -252.3359375 158.83203125 C-263.47732816 172.12184708 -266.21367591 186.84945159 -267.625 203.5625 C-275.6177026 200.22767624 -281.22124551 191.68772636 -284.62890625 184.0234375 C-285.12197266 182.80527344 -285.12197266 182.80527344 -285.625 181.5625 C-285.94339844 180.85351562 -286.26179687 180.14453125 -286.58984375 179.4140625 C-290.92208067 168.03445401 -290.07459184 152.70716312 -285.94140625 141.4453125 C-279.92744603 128.27527499 -270.52759201 118.15900202 -257.625 111.5625 C-256.88507812 111.17320312 -256.14515625 110.78390625 -255.3828125 110.3828125 C-244.50790944 105.0808135 -232.47963225 105.09060788 -220.625 104.5625 C-221.14940673 100.66960681 -221.7547441 96.87643524 -222.6875 93.0625 C-225.4365108 79.25449153 -223.68106901 67.09814493 -216.5625 55 C-205.09383428 38.10137153 -187.10602853 27.00916969 -167.1484375 23.0625 C-160.8863017 22.21602377 -154.55810317 22.27476791 -148.25 22.25 C-147.03699219 22.24444092 -145.82398438 22.23888184 -144.57421875 22.2331543 C-138.25094006 22.28424709 -132.67180781 22.67943702 -126.625 24.5625 C-126.6971875 25.15675781 -126.769375 25.75101563 -126.84375 26.36328125 C-127.56317279 32.78812641 -127.73555835 39.10097873 -127.625 45.5625 C-126.305 45.5625 -124.985 45.5625 -123.625 45.5625 C-123.45484375 44.39074219 -123.2846875 43.21898437 -123.109375 42.01171875 C-120.5697234 25.22676785 -116.66763438 12.89280106 -103.32421875 1.54296875 C-93.69189402 -5.5244533 -83.24410458 -9.75207766 -71.625 -12.4375 C-70.95710449 -12.61337646 -70.28920898 -12.78925293 -69.60107422 -12.97045898 C-46.40179713 -18.7741491 -19.74483841 -13.17346139 0 0 Z " fill="#FECAD0" transform="translate(832.625,505.4375)"/>
<path d="M0 0 C9.57 0 19.14 0 29 0 C29 0.99 29 1.98 29 3 C54.74 3 80.48 3 107 3 C107 13.56 107 24.12 107 35 C107.99 35 108.98 35 110 35 C110 24.44 110 13.88 110 3 C130.13 3 150.26 3 171 3 C171 12.9 171 22.8 171 33 C160.77 33 150.54 33 140 33 C140 33.66 140 34.32 140 35 C151.88 35 163.76 35 176 35 C176 44.57 176 54.14 176 64 C116.93 64 57.86 64 -3 64 C-3 74.56 -3 85.12 -3 96 C-12.57 96 -22.14 96 -32 96 C-32 65.31 -32 34.62 -32 3 C-22.43 3 -12.86 3 -3 3 C-3 13.56 -3 24.12 -3 35 C-2.01 35 -1.02 35 0 35 C0 23.45 0 11.9 0 0 Z M29 33 C29 33.66 29 34.32 29 35 C45.17 35 61.34 35 78 35 C78 34.34 78 33.68 78 33 C61.83 33 45.66 33 29 33 Z " fill="#EFC5C0" transform="translate(837,1011)"/>
<path d="M0 0 C1.07330566 0.01417969 2.14661133 0.02835938 3.25244141 0.04296875 C22.31347989 0.41426885 38.46380016 5.9591733 53.25 18.3125 C54.52230469 19.30830078 54.52230469 19.30830078 55.8203125 20.32421875 C65.94410925 28.69879679 72.59712916 39.72618336 76.25 52.3125 C76.60964844 53.35664062 76.96929688 54.40078125 77.33984375 55.4765625 C78.48768904 60.31426238 78.46762593 64.80163778 78.375 69.75 C78.36597656 70.67232422 78.35695313 71.59464844 78.34765625 72.54492188 C78.3242766 74.80105809 78.29150916 77.05663684 78.25 79.3125 C79.508125 79.34988281 80.76625 79.38726563 82.0625 79.42578125 C113.30834159 80.53424713 140.83324854 89.91333737 162.9375 113 C173.36854037 125.07607899 180.17270323 139.65958345 179.6328125 155.8203125 C178.61854545 165.07291191 175.8787377 173.5701268 169.25 180.3125 C168.59 180.6425 167.93 180.9725 167.25 181.3125 C166.981875 180.39210938 166.71375 179.47171875 166.4375 178.5234375 C161.7831373 163.2121751 154.59961052 151.5277956 143.25 140.3125 C142.60546875 139.65765625 141.9609375 139.0028125 141.296875 138.328125 C136.0310792 133.33706637 129.7843019 129.85143776 123.54296875 126.23046875 C121.40775708 124.98682826 119.30598441 123.68315628 117.25 122.3125 C116.73046875 119.80859375 116.73046875 119.80859375 116.4375 116.75 C115.41328758 109.75681194 113.02987041 104.44681951 107.51171875 99.87109375 C103.75409459 97.47987837 100.63639916 96.88455862 96.25 97.3125 C96.25 98.6325 96.25 99.9525 96.25 101.3125 C96.85328125 101.54324219 97.4565625 101.77398438 98.078125 102.01171875 C103.86515809 104.37320161 107.36912519 106.55075038 110.25 112.3125 C110.29022391 114.6454866 110.29320247 116.97956666 110.25 119.3125 C109.31542969 119.04695312 108.38085938 118.78140625 107.41796875 118.5078125 C96.75654232 115.60065034 86.25040534 114.22122914 75.25 113.3125 C75.22421875 112.31992187 75.1984375 111.32734375 75.171875 110.3046875 C74.39408965 89.24967273 66.98933753 71.76829106 51.79296875 56.91015625 C42.47219456 48.73526434 30.33466815 42.31112101 18.25 39.3125 C17.4971875 39.11011719 16.744375 38.90773438 15.96875 38.69921875 C9.71254354 37.27998673 3.51192827 37.10650731 -2.875 37.0625 C-3.7100708 37.05323486 -4.5451416 37.04396973 -5.40551758 37.03442383 C-11.08533938 37.06297127 -16.26178539 37.8615357 -21.75 39.3125 C-24.66649381 32.42957461 -24.69352564 28.94759486 -22.25 21.8125 C-20.36732888 15.73284986 -20.03763882 9.64055395 -19.75 3.3125 C-13.02378461 0.26317508 -7.33396034 -0.1284045 0 0 Z " fill="#FECAD0" transform="translate(880.75,535.6875)"/>
<path d="M0 0 C0.90556641 0.00016113 1.81113281 0.00032227 2.74414062 0.00048828 C13.2073817 0.17463122 23.35443002 2.25708359 33 6.375 C33 6.705 33 7.035 33 7.375 C32.33170166 7.35405273 31.66340332 7.33310547 30.97485352 7.31152344 C6.00200504 6.63455508 -16.0699084 9.57251313 -35 27.375 C-36.04027344 28.33599609 -36.04027344 28.33599609 -37.1015625 29.31640625 C-46.40445381 38.78093081 -53.256835 53.04433109 -53.22460938 66.35351562 C-53.21236328 67.16498047 -53.20011719 67.97644531 -53.1875 68.8125 C-53.18685547 69.62009766 -53.18621094 70.42769531 -53.18554688 71.25976562 C-53.14843898 76.37653237 -52.72683494 81.31041411 -52 86.375 C-52.93199219 86.38917969 -53.86398437 86.40335938 -54.82421875 86.41796875 C-72.28659539 87.07126292 -86.59580315 93.93325537 -98.7109375 106.64453125 C-109.85232816 119.93434708 -112.58867591 134.66195159 -114 151.375 C-121.9927026 148.04017624 -127.59624551 139.50022636 -131.00390625 131.8359375 C-131.49697266 130.61777344 -131.49697266 130.61777344 -132 129.375 C-132.31839844 128.66601562 -132.63679687 127.95703125 -132.96484375 127.2265625 C-137.29708067 115.84695401 -136.44959184 100.51966312 -132.31640625 89.2578125 C-126.30244603 76.08777499 -116.90259201 65.97150202 -104 59.375 C-103.26007812 58.98570312 -102.52015625 58.59640625 -101.7578125 58.1953125 C-90.88290944 52.8933135 -78.85463225 52.90310788 -67 52.375 C-67.06832031 51.51003906 -67.13664063 50.64507813 -67.20703125 49.75390625 C-66.49953832 38.2070876 -53.02362071 24.77325845 -44.7109375 17.359375 C-31.7077518 6.34955414 -17.1659717 -0.02897482 0 0 Z " fill="#FE9191" transform="translate(679,557.625)"/>
<path d="M0 0 C1.85809053 0.5745505 3.71618153 1.14909947 5.57429123 1.72358799 C7.54662175 2.33539125 9.51743756 2.95185536 11.487854 3.5697937 C15.59957874 4.85919988 19.71513395 6.13603937 23.83154297 7.41040039 C25.23697735 7.84563036 26.64240333 8.28088747 28.04782104 8.71617126 C28.74852596 8.93319136 29.44923088 9.15021145 30.17116928 9.37380791 C32.3151991 10.03841464 34.4588172 10.70433388 36.60232544 11.37062073 C46.24209395 14.36587322 55.8930288 17.32224729 65.5546875 20.24609375 C66.51547022 20.53693533 66.51547022 20.53693533 67.49566269 20.8336525 C73.03907185 22.51137498 78.58335573 24.18619705 84.12799072 25.85986328 C87.48159276 26.87260013 90.834581 27.88734826 94.1875 28.90234375 C95.15373291 29.19326401 96.11996582 29.48418427 97.11547852 29.78392029 C102.06976468 31.28464298 107.00887216 32.82932288 111.93310547 34.42602539 C112.90843231 34.74156876 113.88375916 35.05711212 114.88864136 35.38221741 C118.7246844 36.8337772 121.5775031 38.63938119 123.4296875 42.34375 C123.85236791 49.95199742 123.85236791 49.95199742 121.4296875 53.34375 C117.65141369 56.68517859 115.08593451 56.7973295 110.19482422 56.64160156 C105.42662759 56.12798688 101.0309393 54.71908341 96.4921875 53.21875 C95.49074707 52.90107666 94.48930664 52.58340332 93.45751953 52.25610352 C90.44398543 51.29803387 87.43667351 50.32214548 84.4296875 49.34375 C81.22329886 48.31675595 78.01426631 47.29822379 74.8046875 46.28125 C74.03938721 46.03737549 73.27408691 45.79350098 72.4855957 45.54223633 C65.87439808 43.44890984 59.21536564 41.54553344 52.54199219 39.66162109 C43.09717567 36.98656962 33.71615826 34.11145185 24.33251953 31.23046875 C21.45998069 30.35300356 18.58420941 29.48712008 15.70703125 28.625 C9.93852842 26.89449838 4.18243837 25.12583186 -1.5703125 23.34375 C-3.19356445 22.84609131 -3.19356445 22.84609131 -4.84960938 22.33837891 C-8.15847486 21.31697578 -11.45867906 20.27111351 -14.7578125 19.21875 C-15.7799585 18.90623291 -16.80210449 18.59371582 -17.85522461 18.27172852 C-26.89705422 15.33690483 -26.89705422 15.33690483 -29.5703125 10.34375 C-30.33926239 7.24673802 -30.24215682 4.4602043 -29.5703125 1.34375 C-21.65464518 -8.65498767 -10.51914151 -3.32784326 0 0 Z " fill="#E4E4E5" transform="translate(694.5703125,860.65625)"/>
<path d="M0 0 C1.46377031 0.4435251 2.9277551 0.88634288 4.39193726 1.32850647 C8.31819899 2.51644997 12.2414088 3.7141674 16.16386414 4.91461182 C20.24774772 6.16362471 24.3334371 7.40670427 28.41894531 8.65039062 C33.42112228 10.17336719 38.42305021 11.69713594 43.42382812 13.22470093 C53.56158241 16.3190685 63.71363697 19.35966067 73.8819313 22.35205269 C77.9820611 23.56097065 82.07889528 24.78100708 86.17554283 26.00166607 C89.38031329 26.95557935 92.58723142 27.89986717 95.79852295 28.83175659 C99.3376782 29.86005417 102.86847087 30.91331886 106.3984375 31.97265625 C107.43149017 32.26560074 108.46454285 32.55854523 109.52890015 32.86036682 C115.5688055 34.70634799 118.77772558 36.35162054 122.2265625 41.72265625 C123.11773807 44.78365059 122.69675272 46.43132474 122.2265625 49.72265625 C120.43292339 52.53269085 119.20775315 54.23206093 116.2265625 55.72265625 C108.84544014 56.47526584 102.67077836 54.99349182 95.7265625 52.66015625 C93.45017109 51.92802188 91.17272331 51.19916814 88.89453125 50.47265625 C88.25448654 50.26708603 87.61444183 50.06151581 86.95500183 49.84971619 C76.36502045 46.46304784 65.69223226 43.34074127 55.0390625 40.16015625 C50.85774565 38.90994603 46.67680155 37.65849531 42.49609375 36.40625 C41.4768129 36.10095871 40.45753204 35.79566742 39.40736389 35.48112488 C29.51665796 32.51546888 19.63791234 29.5110037 9.76211548 26.49612427 C7.44305071 25.78869577 5.12341383 25.08319089 2.8034668 24.37866211 C-0.91173987 23.25005443 -4.62399151 22.11194604 -8.3359375 20.97265625 C-9.56505859 20.60011719 -10.79417969 20.22757813 -12.06054688 19.84375 C-13.24583984 19.47894531 -14.43113281 19.11414063 -15.65234375 18.73828125 C-16.6894751 18.42149414 -17.72660645 18.10470703 -18.79516602 17.77832031 C-28.53376797 14.3264214 -28.53376797 14.3264214 -30.7734375 9.72265625 C-31.2395735 6.13414896 -31.11806592 2.88186093 -30.0859375 -0.58984375 C-22.95402102 -9.75945066 -9.17496066 -2.8206207 0 0 Z " fill="#E4E4E5" transform="translate(703.7734375,834.27734375)"/>
<path d="M0 0 C9.9 0 19.8 0 30 0 C30 34.98 30 69.96 30 106 C20.1 106 10.2 106 0 106 C0 71.02 0 36.04 0 0 Z " fill="#EFC5C0" transform="translate(1015,969)"/>
<path d="M0 0 C7.32425101 3.56889457 13.98180407 7.57037828 20.25 12.8125 C21.09691406 13.49828125 21.94382812 14.1840625 22.81640625 14.890625 C34.40249378 24.72553289 45.49410436 39.20768554 47.25 54.8125 C48.00837413 67.72134668 46.42850756 78.62302887 38.1875 88.875 C30.22842905 97.49591267 20.14436838 102.45587556 8.4453125 102.984375 C5.04016227 102.99807782 1.65222724 102.94660239 -1.75 102.8125 C-2.08 102.1525 -2.41 101.4925 -2.75 100.8125 C-1.63882813 100.52117187 -0.52765625 100.22984375 0.6171875 99.9296875 C12.87400105 96.60283811 23.88811203 92.89449093 31.25 81.8125 C36.5456732 71.38260706 38.00508151 59.52095329 35.05859375 48.12109375 C26.50303084 23.69434167 2.37807843 13.09287966 -19.27709961 2.58642578 C-25.66621 -0.38700604 -31.01365622 -1.6092444 -37.94921875 0.47265625 C-48.06972234 4.92567783 -51.6469812 14.13694149 -55.75 23.8125 C-56.08 23.8125 -56.41 23.8125 -56.75 23.8125 C-57.28680734 13.32984549 -56.7648732 5.78584249 -50.25 -2.625 C-38.7745547 -14.38733143 -12.81309442 -5.97009296 0 0 Z " fill="#FDE5E8" transform="translate(994.75,663.1875)"/>
<path d="M0 0 C1.46377031 0.4435251 2.9277551 0.88634288 4.39193726 1.32850647 C8.31819899 2.51644997 12.2414088 3.7141674 16.16386414 4.91461182 C20.24774772 6.16362471 24.3334371 7.40670427 28.41894531 8.65039062 C33.42112228 10.17336719 38.42305021 11.69713594 43.42382812 13.22470093 C53.56158241 16.3190685 63.71363697 19.35966067 73.8819313 22.35205269 C77.9820611 23.56097065 82.07889528 24.78100708 86.17554283 26.00166607 C89.38031329 26.95557935 92.58723142 27.89986717 95.79852295 28.83175659 C99.3376782 29.86005417 102.86847087 30.91331886 106.3984375 31.97265625 C107.43149017 32.26560074 108.46454285 32.55854523 109.52890015 32.86036682 C115.5688055 34.70634799 118.77772558 36.35162054 122.2265625 41.72265625 C123.11773807 44.78365059 122.69675272 46.43132474 122.2265625 49.72265625 C120.43292339 52.53269085 119.20775315 54.23206093 116.2265625 55.72265625 C114.60490498 55.8441393 112.97771923 55.89809277 111.3515625 55.91015625 C110.48789062 55.92433594 109.62421875 55.93851563 108.734375 55.953125 C106.1024337 55.71124877 104.48675706 55.05249166 102.2265625 53.72265625 C103.0309375 53.41328125 103.8353125 53.10390625 104.6640625 52.78515625 C107.11736655 51.9593028 107.11736655 51.9593028 108.2265625 50.72265625 C108.63975616 46.67464352 108.63975616 46.67464352 108.2265625 42.72265625 C105.20851906 39.69726964 101.60571542 38.64747931 97.6015625 37.34765625 C96.95058594 37.13560547 96.29960938 36.92355469 95.62890625 36.70507812 C89.77415713 34.82912354 83.85437055 33.20549177 77.92138672 31.59814453 C73.12796476 30.28805844 68.42881676 28.83026454 63.7265625 27.22265625 C57.68051569 25.15815246 51.59849776 23.41023781 45.43212891 21.74487305 C38.16396985 19.75737709 31.00012841 17.47039187 23.83764648 15.13330078 C13.2508706 11.38380934 13.2508706 11.38380934 2.2265625 10.72265625 C0.25077511 11.6132684 0.25077511 11.6132684 -0.7734375 13.72265625 C-1.31284233 16.40381556 -1.54911864 18.98596615 -1.7734375 21.72265625 C-7.41688372 21.08974639 -12.56854061 19.73307601 -17.9609375 17.97265625 C-18.75435547 17.73289062 -19.54777344 17.493125 -20.36523438 17.24609375 C-25.18047752 15.67739993 -28.13061428 14.30027844 -30.7734375 9.72265625 C-31.54012712 6.23356872 -31.10426402 2.83543636 -30.0859375 -0.58984375 C-22.95402102 -9.75945066 -9.17496066 -2.8206207 0 0 Z " fill="#BCBCBE" transform="translate(703.7734375,834.27734375)"/>
<path d="M0 0 C8.14449571 1.40978164 15.94586721 3.65830579 23.84375 6.0703125 C25.1795282 6.47466573 26.51542788 6.87861782 27.85144043 7.28219604 C31.36075423 8.34351989 34.86831671 9.41052083 38.37554932 10.47869873 C41.85212027 11.53634259 45.33046128 12.58813031 48.80859375 13.640625 C65.55411594 18.71149701 82.28223573 23.83834802 99 29 C92.31203892 35.93259159 85.32289132 37.04687507 75.89916992 37.35351562 C66.67846236 37.44569128 57.93562888 36.20955342 49 34 C48.35740234 33.8443457 47.71480469 33.68869141 47.05273438 33.52832031 C30.56246833 29.37675082 10.62986173 21.19178854 1.375 6.125 C0 3 0 3 0 0 Z " fill="#E5E5E6" transform="translate(687,889)"/>
<path d="M0 0 C1.07330566 0.01417969 2.14661133 0.02835938 3.25244141 0.04296875 C22.31347989 0.41426885 38.46380016 5.9591733 53.25 18.3125 C54.52230469 19.30830078 54.52230469 19.30830078 55.8203125 20.32421875 C65.99565563 28.74143684 72.49199837 39.70969895 76.25 52.3125 C76.6625 53.42625 77.075 54.54 77.5 55.6875 C78.64243065 61.20924815 78.40206082 66.69469744 78.25 72.3125 C77.59 72.3125 76.93 72.3125 76.25 72.3125 C75.90388672 71.53555786 75.90388672 71.53555786 75.55078125 70.74291992 C70.97069149 60.54746813 66.44767991 50.96702494 59.25 42.3125 C58.63769531 41.5390625 58.02539062 40.765625 57.39453125 39.96875 C44.95316779 24.98780926 26.4377892 15.88939231 7.25 13.3125 C-1.74318027 12.77062097 -10.75170799 12.98453713 -19.75 13.3125 C-19.75 10.0125 -19.75 6.7125 -19.75 3.3125 C-13.02378461 0.26317508 -7.33396034 -0.1284045 0 0 Z " fill="#FDE5E8" transform="translate(880.75,535.6875)"/>
<path d="M0 0 C3.60976186 2.76879554 6.83878006 5.73247355 10 9 C10.71800781 9.7321875 11.43601562 10.464375 12.17578125 11.21875 C22.6982868 22.47446215 28.28185423 34.62505097 28.5 50.0625 C28.51853027 50.89644287 28.53706055 51.73038574 28.55615234 52.58959961 C28.49511739 58.4304052 28.49511739 58.4304052 26.15625 61.12109375 C24 62 24 62 21 61 C19.95252432 58.10138195 19.07276938 55.27486616 18.25 52.3125 C12.47928687 32.95028664 2.78550809 16.57539696 -15.125 6.25 C-29.39673964 -0.95994459 -43.31252876 -1.75061715 -59 -2 C-59.33 -4.64 -59.66 -7.28 -60 -10 C-39.46562656 -17.17208885 -17.76011349 -11.65113829 0 0 Z " fill="#FDE5E8" transform="translate(921,591)"/>
<path d="M0 0 C21.89473926 6.41742358 41.22279387 20.52754919 52.36669922 40.66723633 C59.00518546 53.36191577 61.21053856 65.91879667 57.375 79.875 C55.43083387 85.55474249 52.65269488 92.17365256 47 95 C46.66226562 93.96359375 46.32453125 92.9271875 45.9765625 91.859375 C45.52620263 90.4895304 45.07567286 89.11974166 44.625 87.75 C44.40328125 87.06808594 44.1815625 86.38617187 43.953125 85.68359375 C42.67687024 81.77603571 42.67687024 81.77603571 40.95019531 78.05566406 C39.87949452 75.73929699 39.66316645 73.97756317 39.5078125 71.4375 C39.4449707 70.56407959 39.38212891 69.69065918 39.31738281 68.79077148 C39.25389648 67.86981689 39.19041016 66.9488623 39.125 66 C38.4433248 57.83172253 37.34081928 50.56080152 34 43 C33.566875 42.01 33.13375 41.02 32.6875 40 C29.2603981 32.69878291 24.95144426 26.34694525 20 20 C19.55785156 19.41476562 19.11570312 18.82953125 18.66015625 18.2265625 C15.28012046 13.92469877 11.16546832 10.50528089 7 7 C4.64680206 5.01976173 2.31490213 3.02553936 0 1 C0 0.67 0 0.34 0 0 Z " fill="#FDE6E9" transform="translate(1001,622)"/>
<path d="M0 0 C4.42405792 1.18516047 6.71664941 4.90087418 9.12890625 8.5703125 C13.682814 16.64982625 13.54879054 27.76699055 11.3671875 36.68359375 C10.43753861 39.10509025 9.3986345 41.31107188 8.12890625 43.5703125 C7.51015625 44.7046875 6.89140625 45.8390625 6.25390625 47.0078125 C3.22736455 50.65746572 0.24506153 52.14708144 -4.37109375 53.0703125 C-8.12280465 52.31997032 -10.47057853 50.43246527 -12.87109375 47.5703125 C-18.44620356 37.65508556 -19.548926 26.32116802 -17.15234375 15.25 C-14.39837031 7.099127 -9.49838641 -0.24489394 0 0 Z " fill="#8E2525" transform="translate(852.87109375,654.4296875)"/>
<path d="M0 0 C6.65472545 3.91454438 8.43800329 9.80033311 10.58203125 16.9375 C12.61139909 26.95157681 10.65248315 36.03731448 6 45 C3.30793414 48.72807955 -0.15418303 51.66439691 -4.75 52.5 C-9.51038464 51.76763313 -11.94639855 49.6450981 -15 46 C-20.62789513 37.73145026 -20.03023045 26.57355204 -19 17 C-16.84027314 7.32165181 -10.80453864 -1.28189441 0 0 Z " fill="#8E2525" transform="translate(797,653)"/>
<path d="M0 0 C1.50868652 0.01740234 1.50868652 0.01740234 3.04785156 0.03515625 C21.71051411 0.442037 41.31483061 6.03226801 55.75 18.375 C56.52472656 19.01695312 57.29945313 19.65890625 58.09765625 20.3203125 C65.77810845 27.26990364 71.63928907 36.93699366 72.75 47.375 C72.86462124 49.89400157 72.92477762 52.41592409 72.9375 54.9375 C72.95167969 56.21753906 72.96585938 57.49757813 72.98046875 58.81640625 C72.7637158 62.16321876 72.20213997 64.38462481 70.75 67.375 C63.558 60.183 63.558 60.183 62 53.5 C58.32233081 38.95847163 51.4854924 27.55238034 38.8125 19.125 C23.31185461 10.15858452 6.19780202 7.25147255 -11.5 6.75 C-12.63824219 6.71132813 -13.77648437 6.67265625 -14.94921875 6.6328125 C-17.71599779 6.53981152 -20.48279117 6.45397139 -23.25 6.375 C-22.92 5.385 -22.59 4.395 -22.25 3.375 C-15.20904509 0.24912909 -7.58649724 -0.11365539 0 0 Z " fill="#FCE4E7" transform="translate(781.25,490.625)"/>
<path d="M0 0 C3.08661328 1.32598032 3.22133412 1.86156086 4.45898438 4.859375 C5.06396042 6.56289159 5.64583033 8.27471219 6.20996094 9.9921875 C6.53400909 10.92297623 6.85805725 11.85376495 7.19192505 12.8127594 C8.26430912 15.90789443 9.30717343 19.01217812 10.35058594 22.1171875 C11.09617568 24.28575279 11.84376444 26.45363173 12.59326172 28.62084961 C14.15830187 33.15619958 15.71169355 37.69529413 17.25585938 42.23779297 C19.87495765 49.93660561 22.54188037 57.61845149 25.21401978 65.29898071 C25.57603485 66.33952606 25.93804993 67.38007141 26.31103516 68.45214844 C26.8490274 69.99847961 26.8490274 69.99847961 27.39788818 71.5760498 C28.47070033 74.66561753 29.53866929 77.7568159 30.60498047 80.84863281 C33.72563334 89.89175379 36.86806957 98.92321357 40.14746094 107.91015625 C40.41539459 108.648069 40.68332825 109.38598175 40.9593811 110.14625549 C42.17249451 113.48682484 43.39567766 116.82271044 44.64306641 120.15063477 C45.05443848 121.27912842 45.46581055 122.40762207 45.88964844 123.5703125 C46.24752441 124.53098633 46.60540039 125.49166016 46.97412109 126.48144531 C47.66940028 129.40671193 47.40917579 131.2484174 46.60058594 134.1171875 C44.78808594 134.8046875 44.78808594 134.8046875 42.60058594 135.1171875 C39.8099029 132.94511264 38.85790342 130.6593979 37.73803711 127.36254883 C37.40253342 126.38925125 37.06702972 125.41595367 36.72135925 124.41316223 C36.36568375 123.35256088 36.01000824 122.29195953 35.64355469 121.19921875 C35.26399124 120.09096237 34.8844278 118.98270599 34.49336243 117.84086609 C33.25037793 114.20644717 32.0194012 110.56807452 30.78808594 106.9296875 C29.92972151 104.41501941 29.07033957 101.90069841 28.20996094 99.38671875 C26.90883682 95.58460487 25.60820237 91.78233202 24.31161499 87.97866821 C20.90395842 77.9848311 17.44820717 68.00871027 13.95236206 58.04541016 C13.1063759 55.63369337 12.26260171 53.22121171 11.41918945 50.80859375 C8.74763277 43.17547584 6.04503029 35.55475331 3.29589844 27.94921875 C2.77169549 26.49353078 2.24760428 25.03780256 1.72363281 23.58203125 C0.75736984 20.89765624 -0.21905035 18.21731089 -1.20214844 15.5390625 C-1.83733398 13.77755859 -1.83733398 13.77755859 -2.48535156 11.98046875 C-3.04295166 10.45353394 -3.04295166 10.45353394 -3.61181641 8.89575195 C-4.3896528 6.15162423 -4.55832256 3.95127196 -4.39941406 1.1171875 C-2.39941406 0.1171875 -2.39941406 0.1171875 0 0 Z " fill="#8B2121" transform="translate(639.3994140625,356.8828125)"/>
<path d="M0 0 C12.39614634 9.55575469 19.63808753 20.49046115 22.01171875 36.046875 C23.18091696 47.28258465 20.70677821 57.39242622 13.671875 66.328125 C11.61299455 68.45967182 9.35559728 70.2384002 7.01171875 72.046875 C7.30046875 70.81453125 7.58921875 69.5821875 7.88671875 68.3125 C9.96886031 59.15515614 11.84875955 50.48974151 11.01171875 41.046875 C10.92921875 39.99242187 10.84671875 38.93796875 10.76171875 37.8515625 C9.1738257 23.85825499 2.46296125 12.81844959 -8.484375 4.046875 C-23.3594028 -6.20871623 -42.59011495 -9.27308506 -60.30224609 -6.60449219 C-64.94626802 -5.66040659 -69.45636133 -4.32897446 -73.98828125 -2.953125 C-76.15349044 -2.36440487 -78.3199962 -1.78041363 -80.48828125 -1.203125 C-81.98878596 -0.78827958 -83.48901166 -0.37241226 -84.98828125 0.046875 C-83.98828125 -2.953125 -83.98828125 -2.953125 -82.1953125 -4.19921875 C-79.49184382 -5.54433775 -76.77036115 -6.77830887 -73.98828125 -7.953125 C-73.055 -8.35273437 -72.12171875 -8.75234375 -71.16015625 -9.1640625 C-48.71186747 -17.11684822 -19.8260167 -12.95818085 0 0 Z " fill="#FCE4E7" transform="translate(832.98828125,547.953125)"/>
<path d="M0 0 C2.625 0.375 2.625 0.375 5 1 C4.51722946 12.3451078 1.13862294 21.86137706 -7 30 C-16.00846301 37.33974628 -25.57379013 41.26415986 -37 43 C-36.855625 43.65484375 -36.71125 44.3096875 -36.5625 44.984375 C-33.21030808 61.46598529 -35.40052557 75.45943668 -44 90 C-46.15357856 93.17838491 -48.47091311 96.11354213 -51 99 C-51.61359375 99.70769531 -52.2271875 100.41539062 -52.859375 101.14453125 C-56.2875 104.85833333 -56.2875 104.85833333 -58 106 C-60.20703125 105.6796875 -60.20703125 105.6796875 -62 105 C-62.2890625 102.8203125 -62.2890625 102.8203125 -62 100 C-60.0234375 97.4921875 -60.0234375 97.4921875 -57.375 94.875 C-52.40512007 89.74018849 -49.02059948 84.45989591 -46 78 C-45.66097656 77.3709375 -45.32195313 76.741875 -44.97265625 76.09375 C-40.95855762 67.65859342 -41.83185173 54.98454535 -44.87890625 46.3828125 C-47.38659495 41.05288181 -50.43400675 35.43336888 -54.73828125 31.3515625 C-55.15464844 30.90554688 -55.57101562 30.45953125 -56 30 C-55.6875 27.3125 -55.6875 27.3125 -55 25 C-50.68819268 25.48405436 -48.9410446 26.62004866 -46.1875 29.9375 C-45.58292969 30.64777344 -44.97835937 31.35804688 -44.35546875 32.08984375 C-43 34 -43 34 -43 36 C-30.7273298 34.81758327 -18.12731614 31.80624254 -9.6171875 22.2734375 C-5.15990649 16.00740477 -2.80627099 9.57894728 -2 2 C-1.34 1.34 -0.68 0.68 0 0 Z " fill="#902727" transform="translate(720,643)"/>
<path d="M0 0 C1.85809053 0.5745505 3.71618153 1.14909947 5.57429123 1.72358799 C7.54662175 2.33539125 9.51743756 2.95185536 11.487854 3.5697937 C15.59957874 4.85919988 19.71513395 6.13603937 23.83154297 7.41040039 C25.23697735 7.84563036 26.64240333 8.28088747 28.04782104 8.71617126 C28.74852596 8.93319136 29.44923088 9.15021145 30.17116928 9.37380791 C32.3151991 10.03841464 34.4588172 10.70433388 36.60232544 11.37062073 C46.24209395 14.36587322 55.8930288 17.32224729 65.5546875 20.24609375 C66.51547022 20.53693533 66.51547022 20.53693533 67.49566269 20.8336525 C73.03907185 22.51137498 78.58335573 24.18619705 84.12799072 25.85986328 C87.48159276 26.87260013 90.834581 27.88734826 94.1875 28.90234375 C95.15373291 29.19326401 96.11996582 29.48418427 97.11547852 29.78392029 C102.06976468 31.28464298 107.00887216 32.82932288 111.93310547 34.42602539 C112.90843231 34.74156876 113.88375916 35.05711212 114.88864136 35.38221741 C118.7246844 36.8337772 121.5775031 38.63938119 123.4296875 42.34375 C123.85236791 49.95199742 123.85236791 49.95199742 121.4296875 53.34375 C118.91132725 55.86211025 117.79214371 56.32283906 114.1796875 56.53125 C112.8184375 56.4384375 112.8184375 56.4384375 111.4296875 56.34375 C112.0896875 55.4775 112.7496875 54.61125 113.4296875 53.71875 C115.60786173 50.04308099 116.22781737 48.51176155 115.4296875 44.34375 C111.32958932 39.0203715 106.54671737 37.67647477 100.2421875 35.84375 C98.77821533 35.39829834 98.77821533 35.39829834 97.28466797 34.94384766 C90.4963579 32.89619365 83.67125496 30.97638587 76.83032227 29.11279297 C67.55751127 26.5839385 58.42386735 23.6314242 49.27734375 20.68359375 C39.18245833 17.43839109 29.07413486 14.32711027 18.85742188 11.48608398 C14.22269919 10.18598259 9.67328703 8.76891223 5.14160156 7.14648438 C-4.01526932 3.86193184 -4.01526932 3.86193184 -13.5703125 4.34375 C-16.40364583 6.17708333 -16.40364583 6.17708333 -17.5703125 9.34375 C-17.86632783 12.10485854 -17.75968411 14.55051879 -17.5703125 17.34375 C-22.4372215 16.89101428 -25.012245 15.69849936 -28.5703125 12.34375 C-30.30662886 8.87111727 -30.17221652 5.13181987 -29.5703125 1.34375 C-21.65464518 -8.65498767 -10.51914151 -3.32784326 0 0 Z " fill="#BCBCBE" transform="translate(694.5703125,860.65625)"/>
<path d="M0 0 C1.41360708 0.35772371 2.82374079 0.72939629 4.23046875 1.11328125 C5.27944336 1.3752832 5.27944336 1.3752832 6.34960938 1.64257812 C13.7691649 3.57901965 19.47290649 6.89886696 25.35546875 11.73828125 C26.25749023 12.42954102 26.25749023 12.42954102 27.17773438 13.13476562 C28.8828125 14.5390625 28.8828125 14.5390625 31.41796875 17.42578125 C31.41796875 21.27881617 30.91346156 22.81840297 28.48046875 25.80078125 C21.5778202 29.46341109 13.86417962 27.30455935 6.7130127 25.19009399 C5.67721069 24.86826141 4.64140869 24.54642883 3.57421875 24.21484375 C2.48330933 23.88664642 1.3923999 23.5584491 0.26843262 23.2203064 C-2.01931396 22.52904115 -4.30506839 21.83115134 -6.58886719 21.12695312 C-10.09503171 20.04677608 -13.60728787 18.98861715 -17.12109375 17.93359375 C-19.34804279 17.25778285 -21.5746194 16.58074321 -23.80078125 15.90234375 C-24.8527771 15.58455963 -25.90477295 15.26677551 -26.98864746 14.93936157 C-27.95725708 14.63920135 -28.9258667 14.33904114 -29.92382812 14.02978516 C-30.77746948 13.76775299 -31.63111084 13.50572083 -32.51062012 13.23574829 C-34.58203125 12.42578125 -34.58203125 12.42578125 -36.58203125 10.42578125 C-35.421875 10.19503906 -34.26171875 9.96429687 -33.06640625 9.7265625 C-23.70063629 7.79657324 -8.12654017 -1.30272781 0 0 Z " fill="#E3E2E3" transform="translate(802.58203125,835.57421875)"/>
<path d="M0 0 C0 3.63 0 7.26 0 11 C-0.99 11.495 -0.99 11.495 -2 12 C1.96 12.33 5.92 12.66 10 13 C10 20.26 10 27.52 10 35 C-1.22 35 -12.44 35 -24 35 C-26.17933582 18.85310278 -26.17933582 18.85310278 -24 13 C-18.87966957 7.42006232 -7.86638649 0 0 0 Z " fill="#EFC5C1" transform="translate(568,977)"/>
<path d="M0 0 C3.20205464 1.18999086 4.9085721 2.7826097 6.9609375 5.46484375 C7.5075 6.1724585 8.0540625 6.88007324 8.6171875 7.60913086 C9.19726562 8.37749268 9.77734375 9.14585449 10.375 9.9375 C10.98859375 10.73873291 11.6021875 11.53996582 12.234375 12.36547852 C18.93975982 21.15688803 25.4759274 30.07376606 32 39 C40.17139013 50.16539862 48.4293736 61.254489 56.84716797 72.23583984 C57.49057129 73.0758252 58.13397461 73.91581055 58.796875 74.78125 C59.36760742 75.52439453 59.93833984 76.26753906 60.52636719 77.03320312 C63.21799713 80.62561048 64.35572946 82.49409356 64 87 C63 88 63 88 60.63085938 88.26904297 C58 88 58 88 56.35351562 86.63330078 C55.87591797 85.99376465 55.39832031 85.35422852 54.90625 84.6953125 C54.35791504 83.97625732 53.80958008 83.25720215 53.24462891 82.51635742 C52.66890137 81.72720947 52.09317383 80.93806152 51.5 80.125 C50.88688965 79.31071533 50.2737793 78.49643066 49.64208984 77.6574707 C45.02442177 71.49286602 40.52108025 65.24120752 36.04370117 58.97412109 C31.7483713 52.97608539 27.30226889 47.10350337 22.8125 41.25 C17.47342222 34.28595804 12.23182314 27.27850119 7.19921875 20.08984375 C5.70331324 17.98813636 4.16193011 15.91822643 2.58203125 13.87890625 C1.83308594 12.90824219 1.08414063 11.93757812 0.3125 10.9375 C-0.35136719 10.10089844 -1.01523437 9.26429688 -1.69921875 8.40234375 C-3 6 -3 6 -2.83203125 3.25390625 C-2 1 -2 1 0 0 Z " fill="#8C2020" transform="translate(934,879)"/>
<path d="M0 0 C2.475 0.495 2.475 0.495 5 1 C5.41860593 6.49624151 3.97166147 10.49651161 1.9921875 15.5078125 C1.67483139 16.33493744 1.35747528 17.16206238 1.03050232 18.01425171 C-0.01125252 20.721854 -1.06742772 23.42354053 -2.125 26.125 C-2.85196621 27.99779553 -3.57827777 29.87084529 -4.30395508 31.74414062 C-5.41985631 34.62305779 -6.5370422 37.50143562 -7.65870667 40.37811279 C-9.82649091 45.9425032 -11.95558897 51.51904355 -14.0380249 57.11593628 C-15.28199109 60.45805878 -16.53966195 63.7949351 -17.79901123 67.13128662 C-18.38932089 68.70505373 -18.9735595 70.28111198 -19.55157471 71.85943604 C-20.35477808 74.04848129 -21.18035102 76.22777574 -22.01171875 78.40625 C-22.47022217 79.63666016 -22.92872559 80.86707031 -23.40112305 82.13476562 C-25 85 -25 85 -27.68676758 86.41210938 C-28.45013428 86.60611328 -29.21350098 86.80011719 -30 87 C-30.66 86.34 -31.32 85.68 -32 85 C-31.70141724 78.84758395 -29.50270205 73.43667241 -27.31640625 67.73046875 C-26.94495483 66.74405899 -26.57350342 65.75764923 -26.1907959 64.74134827 C-24.9884595 61.55399626 -23.77587057 58.37066603 -22.5625 55.1875 C-21.73641944 53.0070171 -20.910818 50.82635263 -20.08569336 48.64550781 C-18.46504039 44.36604149 -16.83994309 40.08830527 -15.2109375 35.81201172 C-13.60670815 31.59954147 -12.01206782 27.38366072 -10.42811584 23.16352844 C-9.31155763 20.19034168 -8.18675478 17.22028335 -7.0625 14.25 C-6.4902771 12.72088989 -6.4902771 12.72088989 -5.90649414 11.16088867 C-5.55707764 10.24670166 -5.20766113 9.33251465 -4.84765625 8.390625 C-4.55898682 7.62782227 -4.27031738 6.86501953 -3.97290039 6.07910156 C-2.90397569 3.79479473 -1.57481769 1.9627599 0 0 Z " fill="#8B2121" transform="translate(911,405)"/>
<path d="M0 0 C8.04190089 7.0957949 12.52441867 16.0223302 13.25 26.66796875 C13.95953954 44.24433693 6.58426988 55.39462426 -5 68 C-6.35953173 63.92140481 -4.96705281 61.11339084 -3.6875 57.1875 C1.79574805 39.17973629 3.48738806 18.60404123 0 0 Z " fill="#FD9192" transform="translate(665,674)"/>
<path d="M0 0 C0.19529297 0.96873047 0.19529297 0.96873047 0.39453125 1.95703125 C0.79572122 4.17868337 0.79572122 4.17868337 2.92578125 5.08984375 C3.71339844 5.36957031 4.50101563 5.64929688 5.3125 5.9375 C10.17525773 7.8934264 12.63987743 10.27975487 15 15 C15.04022391 17.3329866 15.04320247 19.66706666 15 22 C14.06542969 21.73445312 13.13085938 21.46890625 12.16796875 21.1953125 C1.50654232 18.28815034 -8.99959466 16.90872914 -20 16 C-20.33 10.39 -20.66 4.78 -21 -1 C-6.02970297 -2.87128713 -6.02970297 -2.87128713 0 0 Z " fill="#FD9090" transform="translate(976,633)"/>
<path d="M0 0 C2.625 -0.1875 2.625 -0.1875 5 0 C7.54817124 7.22396032 9.42780064 14.49757842 11.171875 21.953125 C11.45855042 23.17151062 11.74522583 24.38989624 12.04058838 25.64520264 C12.64119421 28.2062851 13.23944131 30.76792175 13.83544922 33.33007812 C14.5977922 36.6062003 15.37358431 39.87898089 16.15259933 43.15117264 C16.89729537 46.29136463 17.62738716 49.43495055 18.359375 52.578125 C18.77953888 54.33446259 18.77953888 54.33446259 19.20819092 56.12628174 C19.45885315 57.21801697 19.70951538 58.3097522 19.96777344 59.43457031 C20.19188904 60.3911554 20.41600464 61.34774048 20.64691162 62.33331299 C21.02239423 65.16913162 20.72170143 67.24857668 20 70 C18.02 70 16.04 70 14 70 C10.4836771 57.3538995 7.44602171 44.59691662 4.46142578 31.81640625 C3.8984711 29.41604373 3.33000737 27.0169673 2.75634766 24.61914062 C1.92166038 21.12906013 1.10350879 17.63547667 0.2890625 14.140625 C0.0288028 13.06572815 -0.23145691 11.9908313 -0.49960327 10.88336182 C-0.72709259 9.89092468 -0.95458191 8.89848755 -1.18896484 7.87597656 C-1.49729752 6.5681723 -1.49729752 6.5681723 -1.81185913 5.23394775 C-2 3 -2 3 0 0 Z " fill="#8B2121" transform="translate(669,342)"/>
<path d="M0 0 C0.76953125 2.23046875 0.76953125 2.23046875 1 5 C-0.73828125 7.17578125 -0.73828125 7.17578125 -3.3125 9.3125 C-4.23804688 10.09238281 -5.16359375 10.87226562 -6.1171875 11.67578125 C-7.06851563 12.44277344 -8.01984375 13.20976563 -9 14 C-9.82757812 14.67417969 -10.65515625 15.34835937 -11.5078125 16.04296875 C-13.15087771 17.3664023 -14.80084436 18.68130586 -16.45703125 19.98828125 C-19.03570808 22.02824833 -21.58328532 24.10169827 -24.125 26.1875 C-28.91177396 30.11018582 -33.7024651 34.02797813 -38.5 37.9375 C-39.19496582 38.50557373 -39.88993164 39.07364746 -40.60595703 39.65893555 C-41.26192871 40.19301025 -41.91790039 40.72708496 -42.59375 41.27734375 C-43.17833984 41.75421631 -43.76292969 42.23108887 -44.36523438 42.72241211 C-45.85614151 43.88757295 -47.42559817 44.95039878 -49 46 C-51.6875 45.625 -51.6875 45.625 -54 45 C-54.26953125 42.765625 -54.26953125 42.765625 -54 40 C-52.19921875 37.859375 -52.19921875 37.859375 -49.6875 35.75 C-48.31464844 34.58210937 -48.31464844 34.58210937 -46.9140625 33.390625 C-45.95242188 32.60171875 -44.99078125 31.8128125 -44 31 C-43.10023438 30.25234375 -42.20046875 29.5046875 -41.2734375 28.734375 C-38.52912543 26.47249243 -35.76629633 24.23491738 -33 22 C-31.26990474 20.58446752 -29.54074945 19.16778547 -27.8125 17.75 C-26.42559997 16.61635997 -25.0386767 15.48274826 -23.65136719 14.34960938 C-22.43014625 13.35154472 -21.20953575 12.35273302 -19.98925781 11.35351562 C-17.8068731 9.56712418 -15.62235152 7.78337317 -13.4375 6 C-12.73407471 5.4234668 -12.03064941 4.84693359 -11.3059082 4.25292969 C-10.64679443 3.71571289 -9.98768066 3.17849609 -9.30859375 2.625 C-8.42385376 1.90183594 -8.42385376 1.90183594 -7.52124023 1.1640625 C-4.63084151 -1.04768861 -3.4153701 -1.02461103 0 0 Z " fill="#8C2020" transform="translate(548,752)"/>
<path d="M0 0 C4.27534734 0.50737106 6.16710684 1.73527361 9.1875 4.75 C17.21022877 12.19872321 27.14743987 16.59369275 38.19921875 16.30859375 C47.43367981 15.29112872 55.05649805 11.83173081 62.5625 6.48828125 C65.0993074 4.93936519 67.07466548 4.39178587 70 4 C70.495 6.475 70.495 6.475 71 9 C58.28155135 19.85564556 46.57797837 23.90405627 30.06494141 23.17919922 C25.29073357 22.76488513 21.23683931 21.14506644 17 19 C16.13890625 18.56429687 15.2778125 18.12859375 14.390625 17.6796875 C8.68842842 14.5175603 2.576334 10.57392597 -1 5 C-0.70703125 2.25390625 -0.70703125 2.25390625 0 0 Z " fill="#8F2727" transform="translate(784,728)"/>
<path d="M0 0 C2.0625 0.6875 2.0625 0.6875 4 2 C8.36906574 14.90382177 5.21618025 32.36341688 -0.3125 44.3125 C-6.39440314 55.57661647 -15.60309009 62.14805589 -27.5546875 66.46875 C-30.13380661 67.02906981 -31.53884695 66.86998899 -34 66 C-34 64.35 -34 62.7 -34 61 C-33.2265625 60.70867188 -32.453125 60.41734375 -31.65625 60.1171875 C-19.57087684 55.36081539 -10.75840968 49.05735266 -4.859375 37.28515625 C-1.84749334 29.2762891 -1.75372857 21.98899996 -1.875 13.5 C-1.88402344 12.29601562 -1.89304687 11.09203125 -1.90234375 9.8515625 C-1.92576225 6.9008321 -1.95856007 3.95052311 -2 1 C-1.34 0.67 -0.68 0.34 0 0 Z " fill="#8F2626" transform="translate(944,742)"/>
<path d="M0 0 C4.20225849 1.43902477 7.21035311 3.50464481 10.6875 6.25 C11.23857422 6.68183594 11.78964844 7.11367188 12.35742188 7.55859375 C13.57647155 8.51402895 14.79366791 9.47183219 16.00927734 10.43164062 C18.89054377 12.70160083 21.78793556 14.95063164 24.68457031 17.20092773 C26.22769396 18.39992375 27.77001289 19.59995617 29.31152344 20.80102539 C32.84202167 23.55145092 36.37706171 26.2950118 39.93359375 29.01171875 C40.52978516 29.46740234 41.12597656 29.92308594 41.74023438 30.39257812 C43.32402343 31.60092352 44.90997619 32.80643146 46.49609375 34.01171875 C50.59725412 37.26833439 50.59725412 37.26833439 52 39 C51.6875 41.6875 51.6875 41.6875 51 44 C50.01 44.33 49.02 44.66 48 45 C43.83557288 42.54966028 40.06553481 39.58254418 36.25 36.625 C35.7034375 36.2021875 35.156875 35.779375 34.59375 35.34375 C32.72716901 33.89838861 30.86332323 32.44955857 29 31 C28.29166016 30.44924805 27.58332031 29.89849609 26.85351562 29.33105469 C26.11294922 28.75516602 25.37238281 28.17927734 24.609375 27.5859375 C23.85293701 26.99780273 23.09649902 26.40966797 22.31713867 25.80371094 C20.77440573 24.6028142 19.23289697 23.40034312 17.69262695 22.19628906 C14.15431585 19.43346191 10.60624811 16.69193045 6.99609375 14.0234375 C6.39087891 13.57226562 5.78566406 13.12109375 5.16210938 12.65625 C3.5499128 11.45851393 1.92954339 10.27180078 0.30859375 9.0859375 C-2 7 -2 7 -2.9296875 4.8359375 C-3 3 -3 3 -1.5625 1.25 C-1.046875 0.8375 -0.53125 0.425 0 0 Z " fill="#8C2020" transform="translate(520,524)"/>
<path d="M0 0 C0.495 0.99 0.495 0.99 1 2 C-2.46650849 11.42774275 -7.44098227 19.15193823 -16.484375 23.78515625 C-32.24722302 30.90796245 -32.24722302 30.90796245 -40 29 C-42.57571232 26.65844334 -44.25568161 23.9910771 -46 21 C-46.66 20.01 -47.32 19.02 -48 18 C-46.741875 17.78085937 -45.48375 17.56171875 -44.1875 17.3359375 C-29.20979704 14.60977794 -11.21616097 11.21616097 0 0 Z " fill="#FD9191" transform="translate(717,650)"/>
<path d="M0 0 C2.3125 0.8125 2.3125 0.8125 4 2 C3.71997799 5.37813786 3.21871498 6.77179287 0.83984375 9.25390625 C-0.11792969 10.01574219 -1.07570313 10.77757812 -2.0625 11.5625 C-2.59125732 11.98740723 -3.12001465 12.41231445 -3.66479492 12.85009766 C-8.63501786 16.8070854 -13.73838697 20.59613941 -18.84155273 24.37915039 C-24.32195571 28.45036297 -29.66383592 32.6746543 -34.95239258 36.99169922 C-38.51405819 39.88234084 -42.03568537 42.67997496 -46 45 C-48.875 44.25 -48.875 44.25 -51 43 C-50.6757647 40.04135286 -50.38897841 38.41058832 -48.3125 36.21875 C-47.549375 35.6515625 -46.78625 35.084375 -46 34.5 C-45.0925 33.81164062 -44.185 33.12328125 -43.25 32.4140625 C-42.47849609 31.84220215 -42.47849609 31.84220215 -41.69140625 31.25878906 C-39.15071309 29.36793832 -36.64260944 27.43509953 -34.12988281 25.50732422 C-31.95976068 23.84416092 -29.78458271 22.18775433 -27.609375 20.53125 C-24.41617532 18.09310613 -21.24147274 15.63299898 -18.078125 13.15625 C-17.27117187 12.52477051 -16.46421875 11.89329102 -15.6328125 11.24267578 C-14.07886445 10.02467347 -12.52669233 8.80440097 -10.9765625 7.58154297 C-3.51099605 1.73295035 -3.51099605 1.73295035 0 0 Z " fill="#8C2121" transform="translate(1045,524)"/>
<path d="M0 0 C8.14449571 1.40978164 15.94586721 3.65830579 23.84375 6.0703125 C25.1795282 6.47466573 26.51542788 6.87861782 27.85144043 7.28219604 C31.36075423 8.34351989 34.86831671 9.41052083 38.37554932 10.47869873 C41.85212027 11.53634259 45.33046128 12.58813031 48.80859375 13.640625 C65.55411594 18.71149701 82.28223573 23.83834802 99 29 C96.6875 31.5 96.6875 31.5 94 34 C93.01 34 92.02 34 91 34 C91 33.34 91 32.68 91 32 C90.31437988 31.72768555 89.62875977 31.45537109 88.92236328 31.17480469 C86.88409354 30.35541003 84.85159636 29.52157204 82.82373047 28.67675781 C74.09541996 25.0854775 65.31031213 22.06802072 56.26367188 19.38476562 C54.10304562 18.74348386 51.94593767 18.09127542 49.7890625 17.4375 C35.6541665 13.09402594 35.6541665 13.09402594 21 12 C20.80377759 16.21878192 21.19769832 19.17010894 23 23 C13.34257023 20.2873984 6.21984819 13.26669096 0.92578125 4.9453125 C0 3 0 3 0 0 Z " fill="#BCBABC" transform="translate(687,889)"/>
<path d="M0 0 C4.32504836 1.65863505 7.09418825 4.871041 10.25 8.125 C10.80429687 8.68832031 11.35859375 9.25164063 11.9296875 9.83203125 C13.29104485 11.21686028 14.64614859 12.60783204 16 14 C14.34136495 18.32504836 11.128959 21.09418825 7.875 24.25 C7.31167969 24.80429687 6.74835937 25.35859375 6.16796875 25.9296875 C4.78313972 27.29104485 3.39216796 28.64614859 2 30 C-2.32504836 28.34136495 -5.09418825 25.128959 -8.25 21.875 C-8.80429687 21.31167969 -9.35859375 20.74835937 -9.9296875 20.16796875 C-11.29104485 18.78313972 -12.64614859 17.39216796 -14 16 C-12.34136495 11.67495164 -9.128959 8.90581175 -5.875 5.75 C-5.31167969 5.19570313 -4.74835937 4.64140625 -4.16796875 4.0703125 C-2.78313972 2.70895515 -1.39216796 1.35385141 0 0 Z " fill="#EFC5C0" transform="translate(654,979)"/>
<path d="M0 0 C4.81341074 1.68034526 9.06921985 4.07594655 13.46484375 6.66015625 C14.0561911 7.00644577 14.64753845 7.35273529 15.25680542 7.70951843 C17.15332735 8.82224557 19.04585563 9.94150335 20.9375 11.0625 C21.58085297 11.44305542 22.22420593 11.82361084 22.88705444 12.21569824 C26.09706613 14.11525085 29.30422376 16.0194978 32.50878906 17.92822266 C35.48057489 19.69627903 38.46831872 21.4353698 41.4609375 23.16796875 C42.91223456 24.0273363 44.36283816 24.88787687 45.8125 25.75 C46.7878772 26.30312866 46.7878772 26.30312866 47.78295898 26.86743164 C49.51953125 27.921875 49.51953125 27.921875 52 30 C52.44921875 32.703125 52.44921875 32.703125 52 35 C51.67 35.33 51.34 35.66 51 36 C45.7037067 35.62633639 42.13401554 34.28202127 37.60546875 31.5703125 C37.01958984 31.22392731 36.43371094 30.87754211 35.83007812 30.5206604 C33.94199909 29.40038561 32.06452676 28.2636799 30.1875 27.125 C28.89080925 26.34726707 27.59368742 25.57025246 26.29614258 24.79394531 C23.72256697 23.25215687 21.15322411 21.70360006 18.5859375 20.15136719 C15.44585485 18.25859747 12.27698092 16.42102794 9.09375 14.6015625 C7.45822968 13.65122003 5.82280398 12.70071468 4.1875 11.75 C3.44201904 11.33379395 2.69653809 10.91758789 1.9284668 10.48876953 C-0.08203125 9.296875 -0.08203125 9.296875 -3 7 C-3.63671875 4.328125 -3.63671875 4.328125 -3 2 C-2.01 1.34 -1.02 0.68 0 0 Z " fill="#8B2020" transform="translate(973,850)"/>
<path d="M0 0 C0.33 0 0.66 0 1 0 C3.20784304 11.03921522 3.73642126 24.61043077 -1 35 C-1.3403125 35.763125 -1.680625 36.52625 -2.03125 37.3125 C-6.8123335 46.874667 -14.04785367 53.18501057 -24 57 C-27.625 57.8125 -27.625 57.8125 -30 58 C-29.6596875 57.55011719 -29.319375 57.10023438 -28.96875 56.63671875 C-27.91514408 55.23844919 -26.86767078 53.8355506 -25.82421875 52.4296875 C-24.64170711 50.85469341 -23.43704289 49.29599699 -22.20703125 47.7578125 C-17.50167404 41.68450608 -13.8303647 35.28576887 -10.25 28.5 C-9.56031128 27.20122925 -9.56031128 27.20122925 -8.85668945 25.8762207 C-4.61892544 17.67611263 -0.82429754 9.27334736 0 0 Z " fill="#FB9393" transform="translate(941,744)"/>
<path d="M0 0 C2.046875 2.73828125 2.046875 2.73828125 3.75 6.3125 C7.2005357 13.10994116 11.47910266 18.23862883 16.77734375 23.671875 C19 26 19 26 20 28 C-8.03014334 21.3126054 -8.03014334 21.3126054 -13 16 C-14.21762731 12.34711807 -14.39075851 9.84245864 -14 6 C-10.31790619 -0.16888105 -6.98390643 -1.85179337 0 0 Z " fill="#BBBABC" transform="translate(695,803)"/>
<path d="M0 0 C3.63094249 1.24178233 4.88804557 3.05407975 6.75 6.3125 C10.52665411 12.2295752 14.89256774 14.76875325 21.3125 17.3125 C27.74804073 18.51234658 34.10199495 18.34994894 40.5625 17.375 C41.696875 17.25125 42.83125 17.1275 44 17 C44.66 17.66 45.32 18.32 46 19 C45.9375 21 45.9375 21 45 23 C38.15361313 26.75880064 28.52947017 25.94058996 21 25 C16.49500415 23.60868073 12.8598272 21.68589886 9 19 C8.29359375 18.50886719 7.5871875 18.01773438 6.859375 17.51171875 C2.68553029 14.25857508 0.18654633 10.81040192 -2 6 C-2.25 3.0625 -2.25 3.0625 -2 1 C-1.34 0.67 -0.68 0.34 0 0 Z " fill="#902828" transform="translate(732,586)"/>
<path d="M0 0 C-3.18289873 1.91984368 -6.42118818 2.58178273 -10.04077148 3.29199219 C-27.95715803 6.80743421 -43.8135258 13.9665935 -55 29 C-56.82528627 31.92936187 -58.47725701 34.90326787 -60 38 C-62.64 38 -65.28 38 -68 38 C-56.24520216 18.53111608 -43.44630693 6.20283645 -20.9765625 0.64453125 C-14.0681287 -0.66460118 -6.99025083 -0.30801595 0 0 Z " fill="#FB9191" transform="translate(782,528)"/>
<path d="M0 0 C0.69029297 0.17917969 1.38058594 0.35835937 2.09179688 0.54296875 C9.4392413 2.53478781 15.15939016 5.88259875 21 10.6875 C21.90202148 11.37875977 21.90202148 11.37875977 22.82226562 12.08398438 C24.52734375 13.48828125 24.52734375 13.48828125 27.0625 16.375 C27.0625 20.22803492 26.55799281 21.76762172 24.125 24.75 C19.84015147 27.0235931 15.83091307 27.07005682 11.0625 26.375 C10.0725 25.715 9.0825 25.055 8.0625 24.375 C8.866875 23.900625 9.67125 23.42625 10.5 22.9375 C12.91003488 21.60599846 12.91003488 21.60599846 14.0625 20.375 C14.19818319 16.71155389 14.22711426 13.86884279 13.0625 10.375 C10.71044711 9.47821815 10.71044711 9.47821815 7.8125 8.9375 C3.11578241 7.86621988 -1.5076859 6.69004122 -6.125 5.3125 C-7.75501953 4.83103516 -7.75501953 4.83103516 -9.41796875 4.33984375 C-11.9375 3.375 -11.9375 3.375 -12.9375 1.375 C-8.42793652 -2.22913456 -5.21103528 -1.51928048 0 0 Z " fill="#BCBCBE" transform="translate(806.9375,836.625)"/>
<path d="M0 0 C9.40001571 0.32809828 18.04450656 1.6963377 26 7 C26 7.99 26 8.98 26 10 C16.6476695 10.66276358 7.92485614 9.28323743 0 4 C0 2.68 0 1.36 0 0 Z " fill="#FEFEFE" transform="translate(729,913)"/>
<path d="M0 0 C2.375 0.3125 2.375 0.3125 5 1 C7.46372552 4.69558828 7.57583561 7.71044199 7 12 C5.5 15 5.5 15 4 17 C1.625 16.6875 1.625 16.6875 -1 16 C-3.67548031 11.98677954 -3.58740465 8.71626345 -3 4 C-1.5 1.4375 -1.5 1.4375 0 0 Z " fill="#F8F3F3" transform="translate(853,659)"/>
<path d="M0 0 C2.53903996 0.35021241 3.82093298 0.84011873 5.75 2.5625 C7.54480257 6.06236501 7.57715694 9.14174539 7 13 C5.8125 15.5 5.8125 15.5 4 17 C1.3125 17.25 1.3125 17.25 -1 17 C-3.47823665 13.28264502 -3.5897167 9.31604251 -3 5 C-1.5 2 -1.5 2 0 0 Z " fill="#F8F3F3" transform="translate(796,658)"/>
<path d="M0 0 C4.95 0.99 4.95 0.99 10 2 C10 2.66 10 3.32 10 4 C6.7 3.34 3.4 2.68 0 2 C0 1.34 0 0.68 0 0 Z " fill="#DFD6D7" transform="translate(737,921)"/>
</svg>
